<?xml version="1.0" standalone="no"?>
<!DOCTYPE svg PUBLIC "-//W3C//DTD SVG 20010904//EN"
 "http://www.w3.org/TR/2001/REC-SVG-20010904/DTD/svg10.dtd">
<svg version="1.0" xmlns="http://www.w3.org/2000/svg"
 width="596.000000pt" height="842.000000pt" viewBox="0 0 596.000000 842.000000"
 preserveAspectRatio="xMidYMid meet">

<g transform="translate(0.000000,842.000000) scale(0.100000,-0.100000)"
fill="#000000" stroke="none">
<path d="M1718 7361 c-286 -104 -435 -164 -452 -180 l-26 -24 0 -201 0 -201
-393 -139 c-318 -112 -397 -144 -419 -167 l-28 -29 0 -1584 c0 -1495 1 -1584
18 -1598 9 -9 198 -84 420 -168 l402 -153 0 -511 c1 -419 3 -514 14 -529 9
-12 500 -201 1286 -496 l1272 -478 429 157 c277 101 438 165 454 180 l25 23 0
202 0 201 394 143 c304 110 400 149 420 170 l26 27 0 530 c0 409 -3 534 -12
546 -7 8 -209 90 -450 181 l-436 166 -428 -156 c-289 -105 -434 -163 -446
-177 -15 -18 -17 -44 -18 -199 l0 -178 -22 7 c-13 4 -365 134 -783 290 l-760
282 -3 1201 c-1 661 1 1201 5 1201 4 0 344 -125 755 -277 l748 -278 0 -526 c0
-496 1 -527 18 -542 10 -10 211 -92 447 -183 l429 -165 420 153 c314 114 428
159 449 180 l27 26 0 539 c0 416 -3 543 -12 556 -7 9 -182 79 -388 156 l-375
139 -3 525 c-2 420 -5 527 -15 536 -11 8 -2126 817 -2487 951 l-75 27 -427
-156z m1695 -347 c688 -262 1260 -480 1270 -485 16 -9 17 -45 17 -537 l0 -527
384 -143 c229 -86 387 -150 390 -159 3 -8 6 -250 6 -538 l0 -524 -22 -24 c-17
-18 -136 -66 -438 -175 l-416 -151 -414 160 c-228 88 -425 167 -437 175 l-23
14 -2 531 -3 531 -760 282 c-523 195 -764 280 -772 273 -10 -7 -13 -263 -13
-1221 l0 -1211 797 -297 c439 -163 801 -294 805 -292 5 3 8 87 8 188 0 172 1
184 21 201 11 11 207 87 436 171 l415 151 127 -48 c69 -27 264 -102 434 -166
l307 -117 0 -536 c0 -521 -1 -537 -20 -555 -10 -9 -196 -82 -412 -160 l-393
-142 -3 -205 c-2 -198 -3 -206 -25 -225 -12 -11 -211 -89 -441 -173 -370 -134
-423 -151 -450 -143 -134 42 -2503 941 -2511 953 -6 9 -12 212 -15 529 l-5
515 -400 152 c-220 84 -408 157 -418 163 -16 11 -17 97 -17 1586 l0 1574 23
25 c16 18 120 59 402 159 209 75 388 138 398 142 15 6 17 26 17 209 0 197 1
203 23 223 21 21 824 321 860 322 9 1 581 -213 1270 -475z"/>
<path d="M2105 7415 c-17 -7 -175 -65 -352 -130 -293 -107 -323 -120 -323
-140 0 -20 29 -33 313 -135 171 -62 333 -120 358 -130 l45 -17 349 136 c192
75 350 141 352 147 2 5 -158 71 -355 145 -328 124 -360 134 -387 124z m360
-136 c176 -66 326 -124 332 -128 11 -6 -627 -261 -651 -261 -28 0 -686 245
-686 255 0 10 636 252 670 254 8 1 159 -53 335 -120z"/>
<path d="M2620 6975 c-301 -111 -367 -141 -348 -160 8 -8 689 -255 708 -257 8
-1 166 58 350 129 184 72 346 133 360 135 25 3 -690 279 -720 277 -8 0 -166
-56 -350 -124z m682 -17 c180 -68 324 -126 320 -130 -9 -9 -624 -248 -638
-248 -12 0 -675 238 -683 245 -2 3 -2 7 0 9 6 5 651 243 664 245 6 1 157 -54
337 -121z"/>
<path d="M1340 6596 c0 -452 1 -484 18 -491 254 -100 737 -274 744 -267 4 4 7
224 6 487 l-3 479 -370 137 c-203 76 -376 138 -382 138 -10 1 -13 -102 -13
-483z m403 319 l347 -128 0 -467 0 -468 -360 135 -360 136 0 464 c0 368 3 464
13 461 6 -3 168 -62 360 -133z"/>
<path d="M3452 6663 c-331 -122 -343 -127 -340 -151 3 -27 -11 -21 573 -227
l150 -53 340 127 c320 119 340 128 343 152 2 18 -3 29 -14 33 -135 52 -684
246 -695 245 -8 0 -168 -57 -357 -126z m705 -15 c189 -68 343 -128 343 -134 0
-12 -637 -254 -666 -254 -30 0 -704 244 -701 254 3 8 645 252 672 255 6 1 164
-54 352 -121z"/>
<path d="M2182 6284 l3 -486 370 -139 c204 -76 376 -137 383 -134 10 3 12 105
10 481 l-3 476 -375 144 c-206 79 -378 144 -383 144 -4 0 -6 -219 -5 -486z
m390 319 l358 -138 0 -457 c0 -342 -3 -458 -12 -458 -6 0 -170 60 -365 132
l-353 133 0 462 c0 255 3 463 7 463 5 0 169 -62 365 -137z"/>
<path d="M923 6551 c-309 -111 -323 -117 -323 -141 0 -25 13 -31 316 -139 173
-62 322 -115 330 -118 12 -4 14 34 14 256 0 144 -3 260 -7 260 -5 -1 -153 -54
-330 -118z m317 -142 c0 -215 -1 -230 -17 -225 -167 54 -598 217 -598 226 0 9
571 225 608 229 4 1 7 -103 7 -230z"/>
<path d="M3022 5963 l3 -487 370 -133 c204 -73 376 -133 383 -133 9 0 12 102
12 479 0 447 -1 479 -17 486 -51 20 -744 275 -748 275 -3 0 -4 -219 -3 -487z
m353 337 c179 -66 341 -126 360 -134 l35 -15 0 -455 c0 -358 -3 -456 -12 -456
-7 0 -172 57 -365 126 l-353 127 0 464 c0 254 2 463 5 463 3 0 151 -54 330
-120z"/>
<path d="M502 5864 l3 -489 365 -132 c201 -73 371 -132 378 -132 9 -1 12 101
12 478 l0 478 -367 138 c-203 76 -374 140 -381 143 -10 3 -12 -95 -10 -484z
m403 314 c176 -66 323 -123 328 -127 4 -4 6 -212 5 -462 l-3 -455 -350 126
-350 126 -3 467 -2 467 27 -11 c16 -6 172 -65 348 -131z"/>
<path d="M4314 5324 c-414 -154 -414 -155 -414 -170 0 -7 8 -17 18 -22 23 -13
687 -252 697 -252 11 0 664 239 688 251 9 6 17 16 17 23 0 17 32 4 -345 138
-170 60 -326 116 -346 123 -34 12 -45 9 -315 -91z m631 -44 c325 -115 353
-126 344 -133 -2 -2 -155 -58 -339 -125 l-334 -123 -343 123 c-188 68 -343
126 -343 129 0 8 639 248 661 249 9 0 169 -54 354 -120z"/>
<path d="M500 4817 c0 -452 1 -485 18 -492 70 -27 733 -275 737 -275 3 0 4
217 3 481 l-3 482 -355 139 c-195 76 -365 141 -377 144 l-23 6 0 -485z m403
311 l337 -132 0 -458 c0 -252 -2 -458 -5 -458 -3 0 -162 59 -355 131 l-350
131 0 465 c0 439 1 465 18 459 9 -4 169 -66 355 -138z"/>
<path d="M3800 4602 l0 -478 375 -141 c288 -108 377 -138 385 -128 7 8 9 172
8 481 l-3 469 -370 137 c-203 75 -376 137 -382 138 -10 0 -13 -102 -13 -478z
m368 327 c180 -67 339 -126 355 -131 l27 -10 0 -459 c0 -252 -3 -459 -7 -459
-5 0 -168 60 -363 134 l-355 133 -3 456 c-1 304 1 457 8 457 6 0 157 -54 338
-121z"/>
<path d="M504 4237 c-2 -7 -3 -223 -2 -482 l3 -470 325 -122 c179 -67 349
-131 378 -142 l52 -20 0 483 0 482 -376 141 c-243 91 -377 137 -380 130z m729
-286 c4 -4 6 -212 5 -463 l-3 -455 -350 131 -350 132 -3 461 -2 461 347 -130
c192 -72 351 -134 356 -137z"/>
<path d="M4300 3210 c-321 -119 -345 -129 -348 -153 -3 -21 3 -27 40 -40 24
-8 184 -65 356 -126 173 -61 319 -111 326 -111 11 0 225 78 619 227 62 23 68
28 65 51 -3 23 -25 33 -358 153 -195 71 -355 128 -355 128 0 -1 -155 -59 -345
-129z m702 -22 c186 -66 338 -126 338 -132 0 -6 -151 -67 -334 -135 l-334
-123 -348 123 c-191 68 -349 129 -351 134 -3 11 635 252 671 254 11 1 172 -54
358 -121z"/>
<path d="M1895 3136 c-121 -45 -273 -102 -338 -126 -114 -41 -145 -63 -117
-80 25 -15 695 -254 710 -253 22 2 682 261 694 273 5 5 8 11 5 13 -10 9 -708
257 -720 256 -8 -1 -113 -38 -234 -83z m576 -57 c184 -66 335 -122 337 -123 4
-5 -647 -256 -662 -256 -16 0 -675 236 -684 244 -3 3 4 9 14 13 40 16 649 241
655 242 3 1 156 -53 340 -120z"/>
<path d="M3860 2507 l0 -485 68 -26 c505 -192 678 -253 690 -244 9 8 12 113
10 486 l-3 476 -360 133 c-198 73 -370 136 -382 139 l-23 6 0 -485z m400 319
l335 -124 3 -467 c2 -372 0 -466 -10 -463 -7 3 -169 63 -360 134 l-348 129 0
464 0 463 23 -6 c12 -3 173 -61 357 -130z"/>
<path d="M2636 2790 c-176 -65 -330 -123 -343 -129 -55 -25 -25 -41 337 -171
l355 -128 75 28 c670 249 638 236 624 250 -12 12 -701 270 -716 269 -7 -1
-157 -54 -332 -119z m669 -25 c171 -64 319 -120 329 -124 14 -6 -75 -43 -308
-129 -180 -67 -334 -122 -342 -122 -16 0 -672 235 -682 244 -3 3 -3 7 -1 9 17
13 667 245 679 243 8 -2 155 -56 325 -121z"/>
<path d="M1342 2403 l3 -486 370 -139 c203 -76 375 -136 382 -134 10 4 13 102
13 480 l0 474 -37 15 c-122 48 -721 277 -726 277 -4 0 -6 -219 -5 -487z m397
317 l351 -135 0 -462 0 -463 -57 22 c-32 12 -193 72 -358 134 l-300 112 -3
467 c-1 263 2 465 7 463 4 -1 166 -64 360 -138z"/>
<path d="M3432 2461 c-310 -111 -323 -117 -320 -140 3 -23 28 -34 328 -141
225 -81 329 -114 338 -107 17 13 18 477 0 495 -7 7 -14 11 -17 11 -4 -1 -151
-54 -329 -118z m338 -141 c0 -126 -3 -230 -7 -230 -24 0 -633 225 -630 233 3
10 590 225 620 226 16 1 17 -16 17 -229z"/>
<path d="M2182 2083 l3 -488 370 -133 c203 -73 375 -130 382 -128 10 4 13 103
13 480 l0 474 -27 10 c-16 6 -187 69 -382 141 -195 72 -356 131 -358 131 -2 0
-2 -219 -1 -487z m395 321 l353 -129 0 -462 0 -463 -122 44 c-68 24 -232 83
-365 131 l-243 87 0 465 c0 368 3 464 13 461 6 -3 171 -63 364 -134z"/>
<path d="M3020 1773 l0 -488 371 -138 c204 -76 377 -136 385 -133 12 5 14 77
14 486 0 264 -2 480 -3 480 -2 0 -174 63 -382 140 -209 77 -380 140 -382 140
-2 0 -3 -219 -3 -487z m400 319 l345 -127 3 -468 c1 -257 1 -467 -1 -467 -3 0
-186 68 -674 252 l-53 19 0 465 c0 439 1 465 18 460 9 -4 172 -64 362 -134z"/>
</g>
</svg>
